<svg width="960" viewBox="0 0 960 646" xmlns="http://www.w3.org/2000/svg" font-family="monospace" font-size="11">
<defs>
  <marker id="arr" viewBox="0 0 10 10" refX="8" refY="5" markerWidth="5" markerHeight="5" orient="auto-start-reverse">
    <path d="M2 1L8 5L2 9" fill="none" stroke="context-stroke" stroke-width="1.5" stroke-linecap="round" stroke-linejoin="round"/>
  </marker>
  <marker id="arr-a" viewBox="0 0 10 10" refX="8" refY="5" markerWidth="5" markerHeight="5" orient="auto-start-reverse">
    <path d="M2 1L8 5L2 9" fill="none" stroke="#BA7517" stroke-width="1.5" stroke-linecap="round" stroke-linejoin="round"/>
  </marker>
</defs>
<rect width="960" height="636" fill="#ffffff"/>

<!-- ══ COLUMN HEADERS ══ -->
<text x="20"  y="18" font-family="sans-serif" font-size="9" font-weight="500" fill="#888780" letter-spacing="0.07em">SOURCE FHIR</text>
<text x="318" y="18" font-family="sans-serif" font-size="9" font-weight="500" fill="#888780" letter-spacing="0.07em">GROUPE · RÈGLE</text>
<text x="630" y="18" font-family="sans-serif" font-size="9" font-weight="500" fill="#888780" letter-spacing="0.07em">CIBLE HL7 v2</text>
<line x1="14" y1="24" x2="946" y2="24" stroke="#D3D1C7" stroke-width="0.5"/>

<!-- resource type label toMsh -->
<text x="20" y="38" font-family="sans-serif" font-size="9" fill="#0F6E56" font-weight="500">DocumentReference</text>
<text x="630" y="38" font-family="sans-serif" font-size="9" fill="#534AB7" font-weight="500">Mdm</text>

<!-- ══ GROUP BLOCK toMsh ══ -->
<rect x="318" y="44" width="272" height="224" rx="6" fill="#E1F5EE" stroke="#1D9E75" stroke-width="0.7"/>
<!-- group title bar -->
<rect x="318" y="44" width="272" height="22" rx="6" fill="#9FE1CB"/>
<rect x="318" y="55" width="272" height="11" fill="#9FE1CB"/>
<text x="454" y="59" text-anchor="middle" font-family="sans-serif" font-size="11" font-weight="500" fill="#04342C">group toMsh</text>
<!-- row separators inside group -->
<line x1="318" y1="98"  x2="590" y2="98"  stroke="#9FE1CB" stroke-width="0.5"/>
<line x1="318" y1="130" x2="590" y2="130" stroke="#9FE1CB" stroke-width="0.5"/>
<line x1="318" y1="162" x2="590" y2="162" stroke="#9FE1CB" stroke-width="0.5"/>
<line x1="318" y1="194" x2="590" y2="194" stroke="#9FE1CB" stroke-width="0.5"/>
<line x1="318" y1="226" x2="590" y2="226" stroke="#9FE1CB" stroke-width="0.5"/>

<!-- ── ROW 0  center=84  custodian.identifier → setMsh3 → msh3 ── -->
<rect x="20"  y="70" width="256" height="28" rx="4" fill="#F1EFE8" stroke="#1D9E75" stroke-width="0.5"/>
<rect x="23"  y="73" width="22"  height="14" rx="2" fill="#E1F5EE"/>
<text x="34"  y="84" text-anchor="middle" font-size="8" font-weight="500" fill="#0F6E56">DR</text>
<text x="51"  y="81" font-size="10" fill="#2C2C2A">custodian.identifier.value</text>
<text x="51"  y="92" font-size="8"  fill="#888780">system = hopex</text>
<line x1="276" y1="84" x2="315" y2="84" stroke="#1D9E75" stroke-width="0.8"/>
<circle cx="318" cy="84" r="3" fill="#1D9E75"/>
<text x="330" y="80" font-size="10" font-weight="500" fill="#085041" font-family="sans-serif">setMsh3</text>
<text x="330" y="92" font-size="9"  font-style="italic" fill="#1D9E75">value</text>
<circle cx="590" cy="84" r="3" fill="#1D9E75"/>
<line x1="593" y1="84" x2="628" y2="84" stroke="#1D9E75" stroke-width="0.8" marker-end="url(#arr)"/>
<rect x="630" y="70" width="256" height="28" rx="4" fill="#F1EFE8" stroke="#1D9E75" stroke-width="0.5"/>
<rect x="633" y="73" width="28"  height="14" rx="2" fill="#E1F5EE"/>
<text x="647"  y="84" text-anchor="middle" font-size="8" font-weight="500" fill="#0F6E56">MSH</text>
<text x="667"  y="81" font-size="10" fill="#2C2C2A">msh3</text>
<text x="667"  y="92" font-size="8"  fill="#888780">sending application</text>

<!-- ── ROW 1  center=116  author.identifier → setMsh4 → msh4 ── -->
<rect x="20"  y="102" width="256" height="28" rx="4" fill="#F1EFE8" stroke="#1D9E75" stroke-width="0.5"/>
<rect x="23"  y="105" width="22"  height="14" rx="2" fill="#E1F5EE"/>
<text x="34"  y="116" text-anchor="middle" font-size="8" font-weight="500" fill="#0F6E56">DR</text>
<text x="51"  y="113" font-size="10" fill="#2C2C2A">author.identifier.value</text>
<text x="51"  y="124" font-size="8"  fill="#BA7517">system=Sirius · length ≥ 3</text>
<line x1="276" y1="116" x2="315" y2="116" stroke="#1D9E75" stroke-width="0.8"/>
<circle cx="318" cy="116" r="3" fill="#1D9E75"/>
<text x="330" y="112" font-size="10" font-weight="500" fill="#085041" font-family="sans-serif">setMsh4</text>
<text x="330" y="124" font-size="9"  font-style="italic" fill="#1D9E75">substring(0,3)</text>
<circle cx="590" cy="116" r="3" fill="#1D9E75"/>
<line x1="593" y1="116" x2="628" y2="116" stroke="#1D9E75" stroke-width="0.8" marker-end="url(#arr)"/>
<rect x="630" y="102" width="256" height="28" rx="4" fill="#F1EFE8" stroke="#1D9E75" stroke-width="0.5"/>
<rect x="633" y="105" width="28"  height="14" rx="2" fill="#E1F5EE"/>
<text x="647"  y="116" text-anchor="middle" font-size="8" font-weight="500" fill="#0F6E56">MSH</text>
<text x="667"  y="113" font-size="10" fill="#2C2C2A">msh4</text>
<text x="667"  y="124" font-size="8"  fill="#888780">code hôpital (3 car.)</text>

<!-- ── ROW 2  center=148  now() → setMsh7 → msh7 ── -->
<rect x="20"  y="134" width="256" height="28" rx="4" fill="#F1EFE8" stroke="#1D9E75" stroke-width="0.5"/>
<rect x="23"  y="137" width="22"  height="14" rx="2" fill="#D3D1C7"/>
<text x="34"  y="148" text-anchor="middle" font-size="8" font-weight="500" fill="#444441">FP</text>
<text x="51"  y="145" font-size="10" fill="#2C2C2A">now()</text>
<text x="51"  y="156" font-size="8"  fill="#888780">FHIRPath builtin</text>
<line x1="276" y1="148" x2="315" y2="148" stroke="#1D9E75" stroke-width="0.8"/>
<circle cx="318" cy="148" r="3" fill="#1D9E75"/>
<text x="330" y="144" font-size="10" font-weight="500" fill="#085041" font-family="sans-serif">setMsh7</text>
<text x="330" y="156" font-size="9"  font-style="italic" fill="#1D9E75">replace('-','').replace('T','')[0,14]</text>
<circle cx="590" cy="148" r="3" fill="#1D9E75"/>
<line x1="593" y1="148" x2="628" y2="148" stroke="#1D9E75" stroke-width="0.8" marker-end="url(#arr)"/>
<rect x="630" y="134" width="256" height="28" rx="4" fill="#F1EFE8" stroke="#1D9E75" stroke-width="0.5"/>
<rect x="633" y="137" width="28"  height="14" rx="2" fill="#E1F5EE"/>
<text x="647"  y="148" text-anchor="middle" font-size="8" font-weight="500" fill="#0F6E56">MSH</text>
<text x="667"  y="145" font-size="10" fill="#2C2C2A">msh7</text>
<text x="667"  y="156" font-size="8"  fill="#888780">datetime YYYYMMDDHHmmss</text>

<!-- ── ROW 3  center=180  uuid() → setMsh10 → msh10 ── -->
<rect x="20"  y="166" width="256" height="28" rx="4" fill="#F1EFE8" stroke="#1D9E75" stroke-width="0.5"/>
<rect x="23"  y="169" width="22"  height="14" rx="2" fill="#D3D1C7"/>
<text x="34"  y="180" text-anchor="middle" font-size="8" font-weight="500" fill="#444441">FP</text>
<text x="51"  y="177" font-size="10" fill="#2C2C2A">uuid()</text>
<text x="51"  y="188" font-size="8"  fill="#888780">FHIRPath builtin</text>
<line x1="276" y1="180" x2="315" y2="180" stroke="#1D9E75" stroke-width="0.8"/>
<circle cx="318" cy="180" r="3" fill="#1D9E75"/>
<text x="330" y="176" font-size="10" font-weight="500" fill="#085041" font-family="sans-serif">setMsh10</text>
<text x="330" y="188" font-size="9"  font-style="italic" fill="#1D9E75">uuid()</text>
<circle cx="590" cy="180" r="3" fill="#1D9E75"/>
<line x1="593" y1="180" x2="628" y2="180" stroke="#1D9E75" stroke-width="0.8" marker-end="url(#arr)"/>
<rect x="630" y="166" width="256" height="28" rx="4" fill="#F1EFE8" stroke="#1D9E75" stroke-width="0.5"/>
<rect x="633" y="169" width="28"  height="14" rx="2" fill="#E1F5EE"/>
<text x="647"  y="180" text-anchor="middle" font-size="8" font-weight="500" fill="#0F6E56">MSH</text>
<text x="667"  y="177" font-size="10" fill="#2C2C2A">msh10</text>
<text x="667"  y="188" font-size="8"  fill="#888780">message control id</text>

<!-- ── ROW 4  center=212  'MDM^T02' → setMsh9 → msh9 ── -->
<rect x="20"  y="198" width="256" height="28" rx="4" fill="#F1EFE8" stroke="#1D9E75" stroke-width="0.5"/>
<rect x="23"  y="201" width="24"  height="14" rx="2" fill="#B4B2A9"/>
<text x="35"  y="212" text-anchor="middle" font-size="8" font-weight="500" fill="#2C2C2A">LIT</text>
<text x="53"  y="209" font-size="10" fill="#2C2C2A">'MDM^T02'</text>
<text x="53"  y="220" font-size="8"  fill="#888780">littéral</text>
<line x1="276" y1="212" x2="315" y2="212" stroke="#1D9E75" stroke-width="0.8"/>
<circle cx="318" cy="212" r="3" fill="#1D9E75"/>
<text x="330" y="208" font-size="10" font-weight="500" fill="#085041" font-family="sans-serif">setMsh9</text>
<text x="330" y="220" font-size="9"  font-style="italic" fill="#1D9E75">copy</text>
<circle cx="590" cy="212" r="3" fill="#1D9E75"/>
<line x1="593" y1="212" x2="628" y2="212" stroke="#1D9E75" stroke-width="0.8" marker-end="url(#arr)"/>
<rect x="630" y="198" width="256" height="28" rx="4" fill="#F1EFE8" stroke="#1D9E75" stroke-width="0.5"/>
<rect x="633" y="201" width="28"  height="14" rx="2" fill="#E1F5EE"/>
<text x="647"  y="212" text-anchor="middle" font-size="8" font-weight="500" fill="#0F6E56">MSH</text>
<text x="667"  y="209" font-size="10" fill="#2C2C2A">msh9</text>
<text x="667"  y="220" font-size="8"  fill="#888780">message type</text>

<!-- ── ROW 5  center=244  literals → setFixed → msh1/2/5/6/… ── -->
<rect x="20"  y="230" width="256" height="28" rx="4" fill="#F1EFE8" stroke="#1D9E75" stroke-width="0.5"/>
<rect x="23"  y="233" width="24"  height="14" rx="2" fill="#B4B2A9"/>
<text x="35"  y="244" text-anchor="middle" font-size="8" font-weight="500" fill="#2C2C2A">LIT</text>
<text x="53"  y="241" font-size="9"  fill="#2C2C2A">'|'  '^~\&amp;'  'ORBIS'  'APHP'  'P'  '2.5'</text>
<text x="53"  y="252" font-size="8"  fill="#888780">littéraux fixes</text>
<line x1="276" y1="244" x2="315" y2="244" stroke="#1D9E75" stroke-width="0.8"/>
<circle cx="318" cy="244" r="3" fill="#1D9E75"/>
<text x="330" y="240" font-size="10" font-weight="500" fill="#085041" font-family="sans-serif">setFixed</text>
<text x="330" y="252" font-size="9"  font-style="italic" fill="#1D9E75">copy</text>
<circle cx="590" cy="244" r="3" fill="#1D9E75"/>
<line x1="593" y1="244" x2="628" y2="244" stroke="#1D9E75" stroke-width="0.8" marker-end="url(#arr)"/>
<rect x="630" y="230" width="256" height="28" rx="4" fill="#F1EFE8" stroke="#1D9E75" stroke-width="0.5"/>
<rect x="633" y="233" width="28"  height="14" rx="2" fill="#E1F5EE"/>
<text x="647"  y="244" text-anchor="middle" font-size="8" font-weight="500" fill="#0F6E56">MSH</text>
<text x="667"  y="241" font-size="10" fill="#2C2C2A">msh1/2/5/6/11/12/18</text>
<text x="667"  y="252" font-size="8"  fill="#888780">champs fixes HL7 v2</text>

<!-- section separator -->
<line x1="14" y1="286" x2="946" y2="286" stroke="#D3D1C7" stroke-width="0.5" stroke-dasharray="4 3"/>

<!-- resource type label toPid -->
<text x="20" y="300" font-family="sans-serif" font-size="9" fill="#534AB7" font-weight="500">Patient (contained · via DocumentReference.subject.reference)</text>

<!-- ══ GROUP BLOCK toPid ══ -->
<rect x="318" y="296" width="272" height="254" rx="6" fill="#EEEDFE" stroke="#534AB7" stroke-width="0.7"/>
<!-- group title bar -->
<rect x="318" y="296" width="272" height="22" rx="6" fill="#AFA9EC"/>
<rect x="318" y="307" width="272" height="11" fill="#AFA9EC"/>
<text x="454" y="311" text-anchor="middle" font-family="sans-serif" font-size="11" font-weight="500" fill="#26215C">group toPid</text>
<!-- row separators inside group -->
<line x1="318" y1="348" x2="590" y2="348" stroke="#AFA9EC" stroke-width="0.5"/>
<line x1="318" y1="380" x2="590" y2="380" stroke="#AFA9EC" stroke-width="0.5"/>
<line x1="318" y1="412" x2="590" y2="412" stroke="#AFA9EC" stroke-width="0.5"/>
<line x1="318" y1="444" x2="590" y2="444" stroke="#AFA9EC" stroke-width="0.5"/>
<line x1="318" y1="476" x2="590" y2="476" stroke="#AFA9EC" stroke-width="0.5"/>
<line x1="318" y1="508" x2="590" y2="508" stroke="#AFA9EC" stroke-width="0.5"/>

<!-- ── ROW 0 toPid  center=324  identifier.value → setPid3 → pid3 ── -->
<rect x="20"  y="320" width="256" height="28" rx="4" fill="#F1EFE8" stroke="#534AB7" stroke-width="0.5"/>
<rect x="23"  y="323" width="22"  height="14" rx="2" fill="#EEEDFE"/>
<text x="34"  y="334" text-anchor="middle" font-size="8" font-weight="500" fill="#3C3489">PT</text>
<text x="51"  y="331" font-size="10" fill="#2C2C2A">Patient.identifier.value</text>
<text x="51"  y="342" font-size="8"  fill="#888780">system = ipp</text>
<line x1="276" y1="334" x2="315" y2="334" stroke="#534AB7" stroke-width="0.8"/>
<circle cx="318" cy="334" r="3" fill="#534AB7"/>
<text x="330" y="330" font-size="10" font-weight="500" fill="#26215C" font-family="sans-serif">setPid3</text>
<text x="330" y="342" font-size="9"  font-style="italic" fill="#534AB7">cx1=val · cx4=APHP · cx5=PN</text>
<circle cx="590" cy="334" r="3" fill="#534AB7"/>
<line x1="593" y1="334" x2="628" y2="334" stroke="#534AB7" stroke-width="0.8" marker-end="url(#arr)"/>
<rect x="630" y="320" width="256" height="28" rx="4" fill="#F1EFE8" stroke="#534AB7" stroke-width="0.5"/>
<rect x="633" y="323" width="22"  height="14" rx="2" fill="#EEEDFE"/>
<text x="644"  y="334" text-anchor="middle" font-size="8" font-weight="500" fill="#3C3489">PID</text>
<text x="662"  y="331" font-size="10" fill="#2C2C2A">pid3</text>
<text x="662"  y="342" font-size="8"  fill="#888780">IPP patient</text>

<!-- ── ROW 1 toPid  center=356  name.family → setFamilyName → pid5.xpn1 ── -->
<rect x="20"  y="352" width="256" height="28" rx="4" fill="#F1EFE8" stroke="#534AB7" stroke-width="0.5"/>
<rect x="23"  y="355" width="22"  height="14" rx="2" fill="#EEEDFE"/>
<text x="34"  y="366" text-anchor="middle" font-size="8" font-weight="500" fill="#3C3489">PT</text>
<text x="51"  y="363" font-size="10" fill="#2C2C2A">Patient.name.family</text>
<text x="51"  y="374" font-size="8"  fill="#888780">use = official</text>
<line x1="276" y1="366" x2="315" y2="366" stroke="#534AB7" stroke-width="0.8"/>
<circle cx="318" cy="366" r="3" fill="#534AB7"/>
<text x="330" y="362" font-size="10" font-weight="500" fill="#26215C" font-family="sans-serif">setFamilyName</text>
<text x="330" y="374" font-size="9"  font-style="italic" fill="#534AB7">copy</text>
<circle cx="590" cy="366" r="3" fill="#534AB7"/>
<line x1="593" y1="366" x2="628" y2="366" stroke="#534AB7" stroke-width="0.8" marker-end="url(#arr)"/>
<rect x="630" y="352" width="256" height="28" rx="4" fill="#F1EFE8" stroke="#534AB7" stroke-width="0.5"/>
<rect x="633" y="355" width="22"  height="14" rx="2" fill="#EEEDFE"/>
<text x="644"  y="366" text-anchor="middle" font-size="8" font-weight="500" fill="#3C3489">PID</text>
<text x="662"  y="363" font-size="10" fill="#2C2C2A">pid5.xpn1</text>
<text x="662"  y="374" font-size="8"  fill="#888780">nom de famille</text>

<!-- ── ROW 2 toPid  center=388  name.given → setGivenName → pid5.xpn2 ── -->
<rect x="20"  y="384" width="256" height="28" rx="4" fill="#F1EFE8" stroke="#534AB7" stroke-width="0.5"/>
<rect x="23"  y="387" width="22"  height="14" rx="2" fill="#EEEDFE"/>
<text x="34"  y="398" text-anchor="middle" font-size="8" font-weight="500" fill="#3C3489">PT</text>
<text x="51"  y="395" font-size="10" fill="#2C2C2A">Patient.name.given</text>
<text x="51"  y="406" font-size="8"  fill="#888780">use = official</text>
<line x1="276" y1="398" x2="315" y2="398" stroke="#534AB7" stroke-width="0.8"/>
<circle cx="318" cy="398" r="3" fill="#534AB7"/>
<text x="330" y="394" font-size="10" font-weight="500" fill="#26215C" font-family="sans-serif">setGivenName</text>
<text x="330" y="406" font-size="9"  font-style="italic" fill="#534AB7">copy</text>
<circle cx="590" cy="398" r="3" fill="#534AB7"/>
<line x1="593" y1="398" x2="628" y2="398" stroke="#534AB7" stroke-width="0.8" marker-end="url(#arr)"/>
<rect x="630" y="384" width="256" height="28" rx="4" fill="#F1EFE8" stroke="#534AB7" stroke-width="0.5"/>
<rect x="633" y="387" width="22"  height="14" rx="2" fill="#EEEDFE"/>
<text x="644"  y="398" text-anchor="middle" font-size="8" font-weight="500" fill="#3C3489">PID</text>
<text x="662"  y="395" font-size="10" fill="#2C2C2A">pid5.xpn2</text>
<text x="662"  y="406" font-size="8"  fill="#888780">prénom usuel</text>

<!-- ── ROW 3 toPid  center=420  name.extension → setGivenNames → pid5.xpn3 ── -->
<rect x="20"  y="416" width="256" height="28" rx="4" fill="#F1EFE8" stroke="#534AB7" stroke-width="0.5"/>
<rect x="23"  y="419" width="22"  height="14" rx="2" fill="#EEEDFE"/>
<text x="34"  y="430" text-anchor="middle" font-size="8" font-weight="500" fill="#3C3489">PT</text>
<text x="51"  y="427" font-size="10" fill="#2C2C2A">Patient.name.extension</text>
<text x="51"  y="438" font-size="8"  fill="#888780">fr-core-birth-list-given-name</text>
<line x1="276" y1="430" x2="315" y2="430" stroke="#534AB7" stroke-width="0.8"/>
<circle cx="318" cy="430" r="3" fill="#534AB7"/>
<text x="330" y="426" font-size="10" font-weight="500" fill="#26215C" font-family="sans-serif">setGivenNames</text>
<text x="330" y="438" font-size="9"  font-style="italic" fill="#534AB7">substring(given.length+1)</text>
<circle cx="590" cy="430" r="3" fill="#534AB7"/>
<line x1="593" y1="430" x2="628" y2="430" stroke="#534AB7" stroke-width="0.8" marker-end="url(#arr)"/>
<rect x="630" y="416" width="256" height="28" rx="4" fill="#F1EFE8" stroke="#534AB7" stroke-width="0.5"/>
<rect x="633" y="419" width="22"  height="14" rx="2" fill="#EEEDFE"/>
<text x="644"  y="430" text-anchor="middle" font-size="8" font-weight="500" fill="#3C3489">PID</text>
<text x="662"  y="427" font-size="10" fill="#2C2C2A">pid5.xpn3</text>
<text x="662"  y="438" font-size="8"  fill="#888780">prénoms secondaires</text>

<!-- ── ROW 4 toPid  center=452  birthDate → setBirthDate → pid7 ── -->
<rect x="20"  y="448" width="256" height="28" rx="4" fill="#F1EFE8" stroke="#534AB7" stroke-width="0.5"/>
<rect x="23"  y="451" width="22"  height="14" rx="2" fill="#EEEDFE"/>
<text x="34"  y="462" text-anchor="middle" font-size="8" font-weight="500" fill="#3C3489">PT</text>
<text x="51"  y="459" font-size="10" fill="#2C2C2A">Patient.birthDate</text>
<text x="51"  y="470" font-size="8"  fill="#888780">date · ISO 8601</text>
<line x1="276" y1="462" x2="315" y2="462" stroke="#534AB7" stroke-width="0.8"/>
<circle cx="318" cy="462" r="3" fill="#534AB7"/>
<text x="330" y="458" font-size="10" font-weight="500" fill="#26215C" font-family="sans-serif">setBirthDate</text>
<text x="330" y="470" font-size="9"  font-style="italic" fill="#534AB7">replace('-','')</text>
<circle cx="590" cy="462" r="3" fill="#534AB7"/>
<line x1="593" y1="462" x2="628" y2="462" stroke="#534AB7" stroke-width="0.8" marker-end="url(#arr)"/>
<rect x="630" y="448" width="256" height="28" rx="4" fill="#F1EFE8" stroke="#534AB7" stroke-width="0.5"/>
<rect x="633" y="451" width="22"  height="14" rx="2" fill="#EEEDFE"/>
<text x="644"  y="462" text-anchor="middle" font-size="8" font-weight="500" fill="#3C3489">PID</text>
<text x="662"  y="459" font-size="10" fill="#2C2C2A">pid7</text>
<text x="662"  y="470" font-size="8"  fill="#888780">YYYYMMDD</text>

<!-- ── ROW 5 toPid  center=484  gender → setGender → pid8 ── -->
<rect x="20"  y="480" width="256" height="28" rx="4" fill="#F1EFE8" stroke="#534AB7" stroke-width="0.5"/>
<rect x="23"  y="483" width="22"  height="14" rx="2" fill="#EEEDFE"/>
<text x="34"  y="494" text-anchor="middle" font-size="8" font-weight="500" fill="#3C3489">PT</text>
<text x="51"  y="491" font-size="10" fill="#2C2C2A">Patient.gender</text>
<text x="51"  y="502" font-size="8"  fill="#888780">FHIR code · ConceptMap</text>
<line x1="276" y1="494" x2="315" y2="494" stroke="#534AB7" stroke-width="0.8"/>
<circle cx="318" cy="494" r="3" fill="#534AB7"/>
<text x="330" y="490" font-size="10" font-weight="500" fill="#26215C" font-family="sans-serif">setGender</text>
<text x="330" y="502" font-size="9"  font-style="italic" fill="#534AB7">translate() → table-0001</text>
<circle cx="590" cy="494" r="3" fill="#534AB7"/>
<line x1="593" y1="494" x2="628" y2="494" stroke="#534AB7" stroke-width="0.8" marker-end="url(#arr)"/>
<rect x="630" y="480" width="256" height="28" rx="4" fill="#F1EFE8" stroke="#534AB7" stroke-width="0.5"/>
<rect x="633" y="483" width="22"  height="14" rx="2" fill="#EEEDFE"/>
<text x="644"  y="494" text-anchor="middle" font-size="8" font-weight="500" fill="#3C3489">PID</text>
<text x="662"  y="491" font-size="10" fill="#2C2C2A">pid8</text>
<text x="662"  y="502" font-size="8"  fill="#888780">table HL7 0001</text>

<!-- ── ROW 6 toPid  center=516  'NDA' → setPid18 → pid18 (TODO) ── -->
<rect x="20"  y="512" width="256" height="28" rx="4" fill="#FAEEDA" stroke="#BA7517" stroke-width="0.5" stroke-dasharray="4 2"/>
<rect x="23"  y="515" width="24"  height="14" rx="2" fill="#B4B2A9"/>
<text x="35"  y="526" text-anchor="middle" font-size="8" font-weight="500" fill="#2C2C2A">LIT</text>
<text x="53"  y="523" font-size="10" fill="#2C2C2A">'NDA'</text>
<text x="53"  y="534" font-size="8"  fill="#BA7517">TODO → pv1-19</text>
<line x1="276" y1="526" x2="315" y2="526" stroke="#BA7517" stroke-width="0.8" stroke-dasharray="4 2"/>
<circle cx="318" cy="526" r="3" fill="#BA7517"/>
<text x="330" y="522" font-size="10" font-weight="500" fill="#633806" font-family="sans-serif">setPid18</text>
<text x="330" y="534" font-size="9"  font-style="italic" fill="#BA7517">littéral provisoire</text>
<circle cx="590" cy="526" r="3" fill="#BA7517"/>
<line x1="593" y1="526" x2="628" y2="526" stroke="#BA7517" stroke-width="0.8" stroke-dasharray="4 2" marker-end="url(#arr-a)"/>
<rect x="630" y="512" width="256" height="28" rx="4" fill="#FAEEDA" stroke="#BA7517" stroke-width="0.5" stroke-dasharray="4 2"/>
<rect x="633" y="515" width="22"  height="14" rx="2" fill="#EEEDFE"/>
<text x="644"  y="526" text-anchor="middle" font-size="8" font-weight="500" fill="#3C3489">PID</text>
<text x="662"  y="523" font-size="10" fill="#633806">pid18</text>
<text x="662"  y="534" font-size="8"  fill="#BA7517">NDA (provisoire)</text>

<!-- ══ LEGEND ══ -->
<line x1="14" y1="556" x2="946" y2="556" stroke="#D3D1C7" stroke-width="0.5"/>
<text x="20" y="570" font-family="sans-serif" font-size="8" font-weight="500" fill="#888780" letter-spacing="0.07em">LÉGENDE</text>

<rect x="20"  y="578" width="22" height="14" rx="2" fill="#E1F5EE"/><text x="31"  y="589" text-anchor="middle" font-size="8" font-weight="500" fill="#0F6E56">DR</text>
<text x="48"  y="589" font-family="sans-serif" font-size="9" fill="#444441">DocumentReference</text>

<rect x="190" y="578" width="22" height="14" rx="2" fill="#EEEDFE"/><text x="201" y="589" text-anchor="middle" font-size="8" font-weight="500" fill="#3C3489">PT</text>
<text x="218" y="589" font-family="sans-serif" font-size="9" fill="#444441">Patient (contained)</text>

<rect x="370" y="578" width="22" height="14" rx="2" fill="#D3D1C7"/><text x="381" y="589" text-anchor="middle" font-size="8" font-weight="500" fill="#444441">FP</text>
<text x="398" y="589" font-family="sans-serif" font-size="9" fill="#444441">FHIRPath builtin</text>

<rect x="530" y="578" width="24" height="14" rx="2" fill="#B4B2A9"/><text x="542" y="589" text-anchor="middle" font-size="8" font-weight="500" fill="#2C2C2A">LIT</text>
<text x="560" y="589" font-family="sans-serif" font-size="9" fill="#444441">Littéral / valeur fixe</text>

<rect x="20"  y="600" width="90" height="14" rx="3" fill="none" stroke="#BA7517" stroke-width="0.8" stroke-dasharray="3 2"/>
<text x="26"  y="611" font-size="9" fill="#BA7517">TODO / garde</text>
<text x="82"  y="611" font-family="sans-serif" font-size="9" fill="#444441">précondition where ou point d'attention</text>

<circle cx="28" cy="627" r="3" fill="#1D9E75"/>
<text x="36"  y="631" font-family="sans-serif" font-size="9" fill="#444441">port d'entrée/sortie du groupe</text>

</svg>
